<!-- icon666.com - MILLIONS vector ICONS FREE --><svg viewBox="0 0 447.6 447" xmlns="http://www.w3.org/2000/svg"><path d="m231.800781 335.4375c28.742188-.371094 57.414063-2.988281 85.75-7.832031l28.25-4.875c8.671875-29.523438 13.34375-60.078125 13.878907-90.847657h-127.878907zm0 0" fill="#000000" style="fill: rgb(80, 73, 73);"></path><path d="m357.847656 336.882812c-11.761718 38.371094-33.765625 72.808594-63.648437 99.601563 55.878906-18.644531 102.21875-58.457031 129.074219-110.886719zm0 0" fill="#000000" style="fill: rgb(80, 73, 73);"></path><path d="m231.800781 447.46875c45.863281-4.410156 85.703125-46.402344 108.277344-107.519531l-19.796875 3.421875c-29.238281 5.003906-58.820312 7.714844-88.480469 8.105468zm0 0" fill="#000000" style="fill: rgb(80, 73, 73);"></path><path d="m447.601562 231.882812h-71.929687c-.527344 29.695313-4.746094 59.207032-12.558594 87.855469l68.253907-11.773437c9.835937-24.210938 15.328124-49.964844 16.234374-76.082032zm0 0" fill="#000000" style="fill: rgb(80, 73, 73);"></path><path d="m431.367188 139.804688-68.253907-11.777344c7.8125 28.652344 12.03125 58.164062 12.558594 87.855468h71.929687c-.90625-26.113281-6.398437-51.867187-16.234374-76.078124zm0 0" fill="#000000" style="fill: rgb(80, 73, 73);"></path><path d="m215.800781.300781c-45.863281 4.40625-85.703125 46.398438-108.28125 107.519531l19.800781-3.425781c29.238282-4.996093 58.820313-7.691406 88.480469-8.0625zm0 0" fill="#000000" style="fill: rgb(80, 73, 73);"></path><path d="m357.847656 110.882812 65.425782 11.289063c-26.855469-52.429687-73.195313-92.242187-129.074219-110.886719 29.882812 26.792969 51.886719 61.226563 63.648437 99.597656zm0 0" fill="#000000" style="fill: rgb(80, 73, 73);"></path><path d="m231.800781 215.882812h127.878907c-.535157-30.765624-5.203126-61.324218-13.878907-90.847656l-28.242187-4.871094c-28.335938-4.84375-57.011719-7.464843-85.757813-7.832031zm0 0" fill="#000000" style="fill: rgb(80, 73, 73);"></path><path d="m231.800781 96.332031c29.660157.371094 59.246094 3.066407 88.488281 8.0625l19.789063 3.417969c-22.574219-61.121094-62.414063-103.128906-108.277344-107.511719zm0 0" fill="#000000" style="fill: rgb(80, 73, 73);"></path><path d="m215.800781 231.882812h-127.878906c.535156 30.769532 5.203125 61.324219 13.878906 90.847657l28.238281 4.875c28.339844 4.84375 57.015626 7.460937 85.761719 7.832031zm0 0" fill="#000000" style="fill: rgb(80, 73, 73);"></path><path d="m215.800781 351.476562c-29.664062-.390624-59.25-3.101562-88.488281-8.105468l-19.792969-3.414063c22.578125 61.117188 62.417969 103.128907 108.28125 107.511719zm0 0" fill="#000000" style="fill: rgb(80, 73, 73);"></path><path d="m215.800781 112.332031c-28.746093.367188-57.417969 2.988281-85.753906 7.832031l-28.246094 4.871094c-8.675781 29.523438-13.34375 60.082032-13.878906 90.847656h127.878906zm0 0" fill="#000000" style="fill: rgb(80, 73, 73);"></path><path d="m16.230469 307.964844 68.257812 11.773437c-7.8125-28.648437-12.03125-58.160156-12.558593-87.855469h-71.929688c.902344 26.117188 6.398438 51.871094 16.230469 76.082032zm0 0" fill="#000000" style="fill: rgb(80, 73, 73);"></path><path d="m153.398438 11.285156c-55.878907 18.644532-102.21875 58.457032-129.070313 110.886719l65.425781-11.289063c11.761719-38.371093 33.765625-72.804687 63.644532-99.597656zm0 0" fill="#000000" style="fill: rgb(80, 73, 73);"></path><path d="m153.398438 436.484375c-29.878907-26.792969-51.882813-61.230469-63.644532-99.601563l-65.425781-11.285156c26.851563 52.429688 73.191406 92.242188 129.070313 110.886719zm0 0" fill="#000000" style="fill: rgb(80, 73, 73);"></path><path d="m0 215.882812h71.929688c.527343-29.691406 4.746093-59.203124 12.558593-87.855468l-68.257812 11.777344c-9.832031 24.210937-15.328125 49.964843-16.230469 76.078124zm0 0" fill="#000000" style="fill: rgb(80, 73, 73);"></path></svg>